<?xml version="1.0" encoding="UTF-8" standalone="no"?>
<!-- Created with Inkscape (http://www.inkscape.org/) -->

<svg
   xmlns:dc="http://purl.org/dc/elements/1.1/"
   xmlns:cc="http://creativecommons.org/ns#"
   xmlns:rdf="http://www.w3.org/1999/02/22-rdf-syntax-ns#"
   xmlns:svg="http://www.w3.org/2000/svg"
   xmlns="http://www.w3.org/2000/svg"
   xmlns:sodipodi="http://sodipodi.sourceforge.net/DTD/sodipodi-0.dtd"
   xmlns:inkscape="http://www.inkscape.org/namespaces/inkscape"
   width="600"
   height="600"
   id="svg2"
   version="1.1"
   inkscape:version="0.48.3.1 r9886"
   inkscape:export-filename="/home/sergv/Desktop/key_right.png"
   inkscape:export-xdpi="7.1999998"
   inkscape:export-ydpi="7.1999998"
   sodipodi:docname="keyboard.svg">
  <defs
     id="defs4" />
  <sodipodi:namedview
     id="base"
     pagecolor="#ffffff"
     bordercolor="#666666"
     borderopacity="1.0"
     inkscape:pageopacity="0.0"
     inkscape:pageshadow="2"
     inkscape:zoom="1.1983333"
     inkscape:cx="244.99274"
     inkscape:cy="491.57078"
     inkscape:document-units="px"
     inkscape:current-layer="svg2"
     showgrid="false"
     inkscape:window-width="1680"
     inkscape:window-height="949"
     inkscape:window-x="0"
     inkscape:window-y="32"
     inkscape:window-maximized="1" />
  <metadata
     id="metadata7">
    <rdf:RDF>
      <cc:Work
         rdf:about="">
        <dc:format>image/svg+xml</dc:format>
        <dc:type
           rdf:resource="http://purl.org/dc/dcmitype/StillImage" />
        <dc:title />
      </cc:Work>
    </rdf:RDF>
  </metadata>
  <g
     inkscape:label="left"
     inkscape:groupmode="layer"
     id="g3833"
     transform="translate(0,-452.36218)"
     style="display:none">
    <path
       style="fill:#000000"
       d="m 371.38109,1048.7962 c 13.02428,-8.7069 14.95815,-20.3972 14.95815,-90.41898 l 0,-66.76137 10.68308,-9.40609 10.68303,-9.40608 70.22525,-0.0608 c 77.42731,-0.0671 86.07517,-1.59076 103.88043,-18.30344 C 598.17901,839.07592 600,828.86642 600,752.46122 600,676.05602 598.17901,665.84653 581.81103,650.4829 564.00577,633.77023 555.35791,632.24649 477.9306,632.17949 l -70.22525,-0.0607 -10.68303,-9.40608 -10.68308,-9.40606 0,-66.61653 c 0,-53.79422 -0.93994,-68.68495 -4.8835,-77.3628 -7.0478,-15.50867 -25.11091,-21.3764 -41.34693,-13.43136 -3.82504,1.87175 -79.62155,62.31634 -168.43667,134.32133 C 68.872759,673.55968 8.3139421,724.59944 5.027374,730.66764 c -7.3878137,13.64049 -6.5484,33.40106 1.9587,46.11236 7.007782,10.47107 312.799936,260.7373 330.651136,270.6115 10.91283,6.0364 25.88388,6.6596 33.74388,1.4048 z M 193.89623,899.55014 C 107.05249,829.05272 34.144677,769.38843 31.878886,766.96292 c -2.404077,-2.5736 -3.7125,-9.35385 -3.142063,-16.28195 0.975886,-11.85172 1.251,-12.09403 162.015247,-142.67891 88.57076,-71.94383 162.44868,-130.807 164.17314,-130.807 2.00154,0 3.13541,24.79991 3.13541,68.57616 0,65.62523 0.30419,69.10573 7.06968,80.88291 4.12784,7.1858 12.73424,15.77575 20.68268,20.6433 l 13.61301,8.3365 74.36494,1.38323 c 81.7809,1.52119 85.99588,2.33798 93.48334,18.11603 6.41696,13.52219 6.41696,141.13384 0,154.65602 -7.48746,15.77799 -11.70261,16.59485 -93.48142,18.11601 l -74.36295,1.38328 -13.37374,8.29947 c -7.35556,4.56473 -16.66365,13.7862 -20.68465,20.49219 -7.0853,11.81657 -7.31089,14.31315 -7.31089,80.91995 0,43.84619 -1.13432,68.72719 -3.13329,68.72719 -1.72337,0 -74.18734,-57.67968 -161.0311,-128.17716 z"
       id="left"
       inkscape:connector-curvature="0"
       inkscape:label="#path3050" />
  </g>
  <g
     inkscape:groupmode="layer"
     id="g3835"
     inkscape:label="right"
     style="display:none">
    <path
       style="fill:#000000"
       d="m 228.61891,596.43393 c -13.02428,-8.70681 -14.95815,-20.3971 -14.95815,-90.41888 l 0,-66.76138 -10.68308,-9.40609 -10.68303,-9.40607 -70.22525,-0.0608 C 44.642086,420.31367 35.994232,418.78993 18.188975,402.07724 1.8209864,386.71375 0,376.50424 0,300.09905 0,223.69385 1.8209864,213.48436 18.188975,198.12073 35.994232,181.40804 44.642086,179.8843 122.0694,179.81731 l 70.22525,-0.0607 10.68303,-9.40607 10.68308,-9.40607 0,-66.616522 c 0,-53.794226 0.93994,-68.684958 4.8835,-77.362798 7.0478,-15.5086774 25.11091,-21.3764046 41.34693,-13.4313684 3.82504,1.8717545 79.62155,62.3163394 168.43667,134.3213284 102.79938,83.34239 163.3582,134.38215 166.64477,140.45034 7.38781,13.6405 6.5484,33.40106 -1.9587,46.11236 -7.00779,10.47108 -312.79994,260.73725 -330.65114,270.61144 -10.91283,6.03645 -25.88388,6.6596 -33.74388,1.40491 z M 406.10377,447.18797 c 86.84374,-70.49743 159.75155,-130.16171 162.01734,-132.58722 2.40408,-2.57361 3.7125,-9.35385 3.14207,-16.28196 -0.97589,-11.85172 -1.251,-12.09402 -162.01525,-142.67892 C 320.67717,83.69604 246.79925,24.832878 245.07479,24.832878 c -2.00154,0 -3.13541,24.799908 -3.13541,68.576153 0,65.625229 -0.30419,69.105739 -7.06968,80.882919 -4.12784,7.18579 -12.73424,15.77576 -20.68268,20.64331 l -13.61301,8.3365 -74.36494,1.38323 c -81.780897,1.52119 -85.995884,2.33798 -93.483338,18.11603 -6.416957,13.52219 -6.416957,141.13384 0,154.65601 7.487454,15.778 11.702604,16.59485 93.481418,18.11602 l 74.36295,1.38327 13.37374,8.29947 c 7.35556,4.56474 16.66365,13.7862 20.68465,20.4922 7.0853,11.81656 7.31089,14.31315 7.31089,80.91994 0,43.84618 1.13432,68.7272 3.13329,68.7272 1.72337,0 74.18734,-57.67969 161.0311,-128.17716 z"
       id="right"
       inkscape:connector-curvature="0"
       inkscape:label="#path3050" />
  </g>
  <g
     inkscape:groupmode="layer"
     id="g3837"
     inkscape:label="up"
     style="display:none">
    <path
       style="fill:#000000"
       d="m 596.43392,371.38109 c -8.7068,13.02428 -20.39709,14.95815 -90.41888,14.95815 l -66.76137,0 -9.40609,10.68308 -9.40608,10.68303 -0.0608,70.22525 c -0.0669,77.42731 -1.59076,86.07517 -18.30345,103.88043 C 386.71374,598.17901 376.50424,600 300.09904,600 223.69384,600 213.48435,598.17901 198.12072,581.81103 181.40805,564.00577 179.88431,555.35791 179.81731,477.9306 l -0.0607,-70.22525 -9.40608,-10.68303 -9.40606,-10.68308 -66.616529,0 c -53.794226,0 -68.684961,-0.93994 -77.362802,-4.8835 C 1.4564808,374.40794 -4.4112465,356.34483 3.5337899,340.10881 5.4055444,336.28377 65.850135,260.48726 137.85513,171.67214 221.1975,68.87276 272.23726,8.3139421 278.30546,5.0273739 c 13.64049,-7.3878136 33.40106,-6.5483999 46.11236,1.9587 10.47107,7.0077821 260.73725,312.7999361 270.61144,330.6511361 6.03645,10.91283 6.6596,25.88388 1.40491,33.74388 z M 447.18796,193.89623 C 376.69054,107.05249 317.02625,34.144678 314.60074,31.878888 c -2.5736,-2.404078 -9.35385,-3.7125 -16.28195,-3.142064 -11.85172,0.975886 -12.09403,1.251 -142.67891,162.015246 -71.943836,88.57076 -130.807002,162.44868 -130.807002,164.17314 0,2.00154 24.799911,3.13541 68.576155,3.13541 65.625237,0 69.105737,0.30419 80.882917,7.06968 7.18579,4.12784 15.77575,12.73424 20.6433,20.68268 l 8.3365,13.61301 1.38323,74.36494 c 1.52119,81.7809 2.33798,85.99588 18.11603,93.48334 13.52219,6.41696 141.13384,6.41696 154.65602,0 15.77799,-7.48746 16.59485,-11.70261 18.11601,-93.48142 l 1.38328,-74.36295 8.29947,-13.37374 c 4.56473,-7.35556 13.7862,-16.66365 20.49219,-20.68465 11.81657,-7.0853 14.31315,-7.31089 80.91995,-7.31089 43.84618,0 68.7272,-1.13432 68.7272,-3.13329 0,-1.72337 -57.67969,-74.18734 -128.17717,-161.0311 z"
       id="up"
       inkscape:connector-curvature="0"
       inkscape:label="#path3050" />
  </g>
  <g
     inkscape:groupmode="layer"
     id="g3839"
     inkscape:label="down"
     style="display:none">
    <path
       style="fill:#000000"
       d="M 3.5660753,228.61891 C 12.27288,215.59463 23.963172,213.66076 93.984947,213.66076 l 66.761373,0 9.40609,-10.68308 9.40608,-10.68302 0.0608,-70.22526 C 179.68619,44.642087 181.21005,35.994233 197.92274,18.188974 213.28625,1.8209873 223.49575,8.9817581e-7 299.90096,8.9817581e-7 376.30616,8.9817581e-7 386.51565,1.8209873 401.87928,18.188974 418.59195,35.994233 420.11569,44.642087 420.18269,122.0694 l 0.0607,70.22526 9.40608,10.68302 9.40606,10.68308 66.61653,0 c 53.79423,0 68.68496,0.93995 77.3628,4.8835 15.50868,7.0478 21.37641,25.11091 13.43137,41.34693 -1.87175,3.82504 -62.31634,79.62155 -134.32134,168.43667 -83.34237,102.79938 -134.38214,163.3582 -140.45033,166.64477 -13.6405,7.38781 -33.40106,6.5484 -46.11236,-1.9587 C 265.1111,586.00615 14.84493,280.21399 4.9707435,262.36279 -1.0657067,251.44996 -1.6888612,236.47891 3.5658298,228.61891 z M 152.81203,406.10377 c 70.49742,86.84374 130.16171,159.75155 132.58722,162.01734 2.57361,2.40408 9.35385,3.7125 16.28196,3.14207 11.85172,-0.97589 12.09402,-1.251 142.67891,-162.01525 71.94384,-88.57076 130.807,-162.44868 130.807,-164.17314 0,-2.00154 -24.79991,-3.13541 -68.57615,-3.13541 -65.62524,0 -69.10574,-0.30419 -80.88292,-7.06968 -7.1858,-4.12784 -15.77575,-12.73424 -20.64331,-20.68268 l -8.33649,-13.61301 -1.38323,-74.36494 c -1.52119,-81.780896 -2.33798,-85.995883 -18.11604,-93.483337 -13.52218,-6.416959 -141.13384,-6.416959 -154.65601,0 -15.778,7.487454 -16.59486,11.702604 -18.11602,93.481417 l -1.38328,74.36295 -8.29947,13.37374 c -4.56473,7.35556 -13.7862,16.66365 -20.49219,20.68465 -11.81657,7.0853 -14.31315,7.31089 -80.919945,7.31089 -43.846188,0 -68.727193,1.13432 -68.727193,3.13329 0,1.72337 57.679679,74.18734 128.177158,161.0311 z"
       id="down"
       inkscape:connector-curvature="0"
       inkscape:label="#path3050" />
  </g>
  <g
     inkscape:groupmode="layer"
     id="g3841"
     inkscape:label="shift2"
     style="display:none">
    <path
       style="fill:#000000"
       d="m 596.43392,371.38109 c -8.7068,13.02428 -20.39709,14.95815 -90.41888,14.95815 l -66.76137,0 -9.40609,10.68308 -9.40608,10.68303 -0.0608,70.22525 c -0.0669,77.42731 -1.59076,86.07517 -18.30345,103.88043 C 386.71374,598.17901 376.50424,600 300.09904,600 223.69384,600 213.48435,598.17901 198.12072,581.81103 181.40805,564.00577 179.88431,555.35791 179.81731,477.9306 l -0.0607,-70.22525 -9.40608,-10.68303 -9.40606,-10.68308 -66.616529,0 c -53.794228,0 -68.684962,-0.93994 -77.362803,-4.8835 C 1.4564808,374.40794 -4.4112465,356.34483 3.5337899,340.10881 5.4055444,336.28377 65.850133,260.48726 137.85513,171.67214 221.1975,68.87276 272.23726,8.3139421 278.30546,5.0273739 c 13.64049,-7.3878136 33.40106,-6.5483999 46.11236,1.9587 10.47107,7.0077821 260.73725,312.7999361 270.61144,330.6511361 6.03645,10.91283 6.6596,25.88388 1.40491,33.74388 z"
       id="shift2"
       inkscape:connector-curvature="0"
       inkscape:label="#shift2"
       sodipodi:nodetypes="cscccssssscccssssssscc" />
  </g>
  <g
     style="display:none"
     inkscape:label="shift1"
     id="g3843"
     inkscape:groupmode="layer">
    <path
       inkscape:label="#shift1"
       inkscape:connector-curvature="0"
       id="shift1"
       d="m 596.43392,371.38109 c -8.7068,13.02428 -20.39709,14.95815 -90.41888,14.95815 l -66.76137,0 -9.40609,10.68308 -9.40608,10.68303 -0.0608,70.22525 c -0.0669,77.42731 -1.59076,86.07517 -18.30345,103.88043 C 386.71374,598.17901 376.50424,600 300.09904,600 223.69384,600 213.48435,598.17901 198.12072,581.81103 181.40805,564.00577 179.88431,555.35791 179.81731,477.9306 l -0.0607,-70.22525 -9.40608,-10.68303 -9.40606,-10.68308 -66.616529,0 c -53.794228,0 -68.684962,-0.93994 -77.362803,-4.8835 C 1.4564808,374.40794 -4.4112465,356.34483 3.5337899,340.10881 5.4055444,336.28377 65.850133,260.48726 137.85513,171.67214 221.1975,68.87276 272.23726,8.3139421 278.30546,5.0273739 c 13.64049,-7.3878136 33.40106,-6.5483999 46.11236,1.9587 10.47107,7.0077821 260.73725,312.7999361 270.61144,330.6511361 6.03645,10.91283 6.6596,25.88388 1.40491,33.74388 z M 447.18796,193.89623 C 376.69054,107.05249 317.02625,34.144678 314.60074,31.878888 c -2.5736,-2.404078 -9.35385,-3.7125 -16.28195,-3.142064 -11.85172,0.975886 -12.09403,1.251 -142.67891,162.015246 -71.943838,88.57076 -130.807004,162.44868 -130.807004,164.17314 0,2.00154 24.799912,3.13541 68.576157,3.13541 65.625237,0 69.105737,0.30419 80.882917,7.06968 7.18579,4.12784 15.77575,12.73424 20.6433,20.68268 l 8.3365,13.61301 1.38323,74.36494 c 1.52119,81.7809 2.33798,85.99588 18.11603,93.48334 13.52219,6.41696 141.13384,6.41696 154.65602,0 15.77799,-7.48746 16.59485,-11.70261 18.11601,-93.48142 l 1.38328,-74.36295 8.29947,-13.37374 c 4.56473,-7.35556 13.7862,-16.66365 20.49219,-20.68465 11.81657,-7.0853 14.31315,-7.31089 80.91995,-7.31089 43.84618,0 68.7272,-1.13432 68.7272,-3.13329 0,-1.72337 -57.67969,-74.18734 -128.17717,-161.0311 z"
       style="fill:#000000" />
  </g>
  <g
     inkscape:groupmode="layer"
     id="g3845"
     inkscape:label="shift0"
     style="display:none">
    <g
       id="shift0"
       inkscape:label="#shift0">
      <path
         inkscape:label="#shift0_1"
         inkscape:connector-curvature="0"
         id="shift0_1"
         d="m 497.62256,347.5874 c -5.80453,8.68285 -13.59806,9.9721 -60.27926,9.9721 l -44.50757,0 -6.27073,7.12204 -6.27072,7.12203 -0.0405,46.81683 c -0.0446,51.61821 -1.0605,57.38345 -12.20229,69.25363 C 357.80913,498.78601 351.00279,500 300.066,500 c -50.93681,0 -57.74314,-1.21399 -67.98556,-12.12597 -11.14178,-11.87018 -12.1576,-17.63542 -12.20228,-69.25363 l -0.0404,-46.81683 -6.27071,-7.12203 -6.27071,-7.12204 -44.41102,0 c -35.86282,0 -45.78997,-0.62663 -51.5752,-3.25568 -10.33914,-4.69852 -14.25095,-16.7406 -8.95426,-27.56461 1.24784,-2.55003 41.54422,-53.08103 89.54756,-112.29112 55.56157,-68.53291 89.58809,-108.90545 93.63356,-111.0965 9.09366,-4.925218 22.26737,-4.365607 30.74157,1.30579 6.98071,4.67186 173.82483,208.53329 180.40763,220.43411 4.02429,7.27521 4.43972,17.25591 0.9366,22.49591 z M 398.12525,229.26416 C 351.12699,171.36833 311.35078,122.76313 309.73378,121.2526 c -1.71574,-1.60272 -6.2359,-2.475 -10.85464,-2.09471 -7.90114,0.65059 -8.06268,0.834 -95.11927,108.01016 -47.96255,59.04717 -87.20466,108.29912 -87.20466,109.44876 0,1.33436 16.53326,2.09027 45.71743,2.09027 43.75015,0 46.07049,0.2028 53.92194,4.71312 4.79053,2.7519 10.51717,8.48949 13.7622,13.78846 l 5.55767,9.07534 0.92215,49.57662 c 1.01413,54.5206 1.55865,57.33058 12.07736,62.32224 9.01479,4.27796 94.08922,4.27796 103.10401,0 10.51867,-4.99166 11.06323,-7.80175 12.07734,-62.32096 l 0.92218,-49.57529 5.53298,-8.91583 c 3.04316,-4.90371 9.1908,-11.1091 13.66146,-13.78976 7.87772,-4.72354 9.54211,-4.87394 53.94665,-4.87394 29.23077,0 45.81812,-0.75621 45.81812,-2.08886 0,-1.1489 -38.45312,-49.45823 -85.45145,-107.35406 z"
         style="fill:#000000" />
      <rect
         rx="0"
         ry="0"
         y="0.5"
         x="0.5"
         height="599"
         width="599"
         id="rect3793"
         style="fill:#000000;fill-opacity:0;fill-rule:nonzero;stroke:#9b6464;stroke-width:1;stroke-miterlimit:1;stroke-opacity:1;stroke-dasharray:none" />
    </g>
  </g>
  <g
     inkscape:groupmode="layer"
     id="g3847"
     inkscape:label="delete"
     style="display:none">
    <path
       style="fill:#000000"
       d="M 72.704516,404.14882 C 32.717061,351.43064 0,304.66788 0,300.23149 0,295.79521 32.728122,248.9282 72.729168,196.08275 L 145.45831,100 372.72916,100 600,100 600,300.00002 600,500 372.70453,500 145.40913,500 72.704516,404.14882 z M 309.6463,409.4785 c 22.48401,-22.28686 43.80422,-40.56812 47.37826,-40.62499 3.57404,-0.0563 24.80773,18.17774 47.18596,40.52151 37.45496,37.39718 42.83488,40.625 67.71228,40.625 l 27.02456,0 0,-26.74307 c 0,-24.61818 -3.26178,-29.94211 -41.05264,-67.00695 -22.57892,-22.14513 -41.05261,-43.23887 -41.05261,-46.87501 0,-3.63611 18.47369,-24.72986 41.05261,-46.87501 36.1058,-35.41204 41.05264,-43.10986 41.05264,-63.88192 l 0,-23.61805 -29.84147,0 c -28.27534,0 -32.01332,2.13274 -71.22322,40.63685 l -41.38174,40.63684 -40.69958,-40.63684 c -37.4671,-37.40935 -42.846,-40.63685 -67.72415,-40.63685 l -27.02456,0 0,26.40559 c 0,24.13458 3.53193,29.92776 41.06463,67.35635 l 41.06456,40.9507 -41.06456,40.2756 c -39.13598,38.38407 -41.06463,41.67844 -41.06463,70.14371 l 0,29.86806 23.85681,0 c 20.94203,0 28.85168,-4.951 64.73685,-40.52152 z"
       id="delete"
       inkscape:connector-curvature="0"
       inkscape:label="#path4229" />
  </g>
  <g
     inkscape:groupmode="layer"
     id="g3849"
     inkscape:label="close"
     style="display:none">
    <path
       style="fill:#000000"
       d="M 261.26518,597.44906 C 172.004,581.39129 113.27561,538.56602 76.816009,466.98469 18.652372,352.79184 57.804989,216.70671 168.12081,149.63104 c 20.83937,-12.67104 65.99556,-31.18634 70.0691,-28.73028 1.16388,0.70173 2.11616,17.43853 2.11616,37.19289 l 0,35.91701 -12.79469,5.35035 c -34.15059,14.28074 -67.96406,46.32289 -85.37225,80.9 -48.233161,95.80358 0.40055,207.81265 104.99681,241.81968 16.26171,5.2871 24.43876,6.19393 54.63911,6.05926 32.87305,-0.14661 37.18112,-0.7732 57.90409,-8.42221 28.91613,-10.67315 48.05278,-23.2362 70.0576,-45.99213 63.74155,-65.91726 63.19879,-167.75457 -1.25761,-235.97175 -12.33346,-13.05305 -41.28175,-32.87214 -57.72224,-39.5188 l -10.24484,-4.14184 0,-36.11557 c 0,-42.67041 -1.43866,-41.5372 34.43192,-27.12068 75.8154,30.47054 130.64128,94.00167 150.38954,174.26837 6.73621,27.37933 6.09134,78.5655 -1.36373,108.24342 -22.64878,90.16246 -100.27385,162.00976 -193.21814,184.25323 -16.87852,4.03943 -76.24249,2.20956 -89.48646,-0.17293 z m 29.58204,-262.86945 c -9.68887,-2.63944 -14.96687,-6.46149 -21.29803,-15.42277 -4.24748,-6.01202 -4.65554,-19.40937 -4.65554,-152.84667 l 0,-146.257086 9.07319,-8.851325 c 16.78797,-16.3774878 43.03641,-14.5528878 55.7673,3.876525 l 6.19033,8.961275 0,143.779341 c 0,127.62411 -0.4962,144.59882 -4.41619,151.07254 -7.89283,13.03485 -25.48516,19.82241 -40.66106,15.68817 z"
       id="close"
       inkscape:connector-curvature="0"
       sodipodi:nodetypes="ssssscsssssssscssssssssscsscsss"
       inkscape:label="#close" />
  </g>
  <g
     inkscape:groupmode="layer"
     id="g3851"
     inkscape:label="language"
     style="display:none">
    <path
       style="fill:#000000"
       d="m 249.39022,596.81388 c -13.85605,-2.5213 -14.1594,-2.7897 -29.24809,-25.8816 -15.72025,-24.05834 -42.64189,-76.78969 -45.86895,-89.84333 l -1.82693,-7.38995 56.93624,0 56.93623,0 0,63.15049 0,63.15051 -11.46361,-0.31932 c -6.305,-0.17556 -17.76421,-1.46556 -25.46489,-2.8668 z m 64.52639,-59.29258 0.72404,-62.47867 57.31815,-0.72526 c 31.52497,-0.39889 57.31815,-0.15075 57.31815,0.55127 0,4.97862 -24.90923,56.08906 -38.14463,78.26773 -23.02031,38.57541 -25.36688,41.01641 -42.46894,44.1778 -7.99102,1.4772 -19.241,2.68583 -24.99997,2.68583 l -10.47084,0 0.72404,-62.4787 z m -146.41724,32.08228 c -35.98958,-18.0484 -67.729502,-42.7194 -94.287902,-73.28855 -8.880731,-10.22182 -16.150946,-19.52358 -16.156059,-20.67059 -0.0052,-1.14697 18.28015,-1.75161 40.633868,-1.34363 l 40.643133,0.74182 10.02645,24.18528 c 5.51453,13.30192 16.36579,36.16765 24.11393,50.81267 7.74811,14.6451 13.71281,27.00069 13.2548,27.45699 -0.458,0.4563 -8.66068,-3.09609 -18.22822,-7.89399 z m 262.83316,-24.02051 c 9.45184,-18.1054 20.55552,-41.68605 24.67486,-52.40147 l 7.48974,-19.4826 41.56607,0 41.56607,0 -6.13648,8.73358 c -11.56465,16.45909 -38.74243,43.13108 -60.24051,59.11939 -17.67987,13.14871 -59.37148,36.94991 -64.72355,36.94991 -0.75973,0 6.35199,-14.8134 15.8038,-32.91881 z M 34.213057,438.09287 C 22.799309,421.88425 5.7906,365.4839 1.7801609,330.54643 L 0,315.03841 l 54.822,0.72812 54.82196,0.72808 0.61849,13.43629 c 1.0693,23.2293 6.31819,60.94663 11.71605,84.18888 2.85892,12.31009 5.19806,24.10042 5.19806,26.20072 0,3.14528 -7.8216,3.8187 -44.35291,3.8187 -42.935859,0 -44.48892,-0.1932 -48.610593,-6.04633 z m 126.856433,3.64341 c -5.72963,-9.23617 -20.22672,-92.22013 -20.35366,-116.50809 l -0.0526,-10.07722 72.82776,0 72.82777,0 0,64.49411 0,64.49412 -61.87928,0 c -34.0336,0 -62.55006,-1.0813 -63.36995,-2.40292 z m 154.17573,0.76587 c -0.90375,-0.9004 -1.00586,-29.62042 -0.22684,-63.82228 l 1.41629,-62.18526 71.93079,0.90505 c 39.56194,0.49781 72.10767,1.10245 72.32387,1.34365 0.21631,0.2413 -0.73429,12.53119 -2.11219,27.3111 -2.38116,25.54163 -9.72101,66.13805 -15.91177,88.00758 l -2.85264,10.07721 -61.46213,0 c -33.80417,0 -62.20156,-0.73667 -63.10533,-1.63705 z m 158.28652,-4.40928 c 5.54016,-19.39876 12.94744,-61.21953 15.69854,-88.63261 l 3.17351,-31.62204 53.79808,0 53.79813,0 -1.6599,19.56304 c -2.06567,24.34569 -12.63888,61.65071 -24.73049,87.25535 l -9.20051,19.48259 -46.30207,0 -46.30206,0 1.72677,-6.04633 z M 41.381909,283.63851 0.0930913,282.76227 1.7431174,270.06865 C 6.2731435,235.21963 15.236778,203.15022 28.96693,172.66964 l 7.237318,-16.06668 45.486146,0 c 25.017396,0 45.486166,0.92058 45.486166,2.04573 0,1.12515 -3.07462,16.85726 -6.83254,34.96018 -3.75787,18.10297 -7.70269,45.90242 -8.7663,61.77658 l -1.93376,28.86211 -13.486627,0.13355 c -7.417643,0.0734 -32.06657,-0.26066 -54.775424,-0.74261 z M 141.75657,262.07769 c 2.21119,-28.32994 7.98107,-62.92926 14.45231,-86.66395 l 4.76241,-17.46714 62.67371,-0.72135 62.67372,-0.72135 0,64.54365 0,64.54363 -73.19869,0 -73.19871,0 1.83525,-23.51349 z m 174.00796,22.3982 c -0.61814,-0.61341 -0.77769,-29.63576 -0.35452,-64.49412 l 0.76936,-63.37881 22.40338,0 c 12.32182,0 40.74857,0.79106 63.17048,1.75795 l 40.76712,1.75793 4.06698,17.81442 c 5.88081,25.7594 11.69678,62.84909 13.61589,86.8317 l 1.66658,20.82622 -72.4907,0 c -39.86988,0 -72.99644,-0.5019 -73.61457,-1.11529 z M 490.398,259.31628 c -1.48148,-22.52171 -7.10918,-59.06891 -14.05761,-91.29249 l -1.88326,-8.73357 45.79238,0 45.79238,0 8.21382,18.13895 c 14.29517,31.56879 24.95269,72.67585 24.95269,96.24506 l 0,11.91695 -53.54102,0 -53.54104,0 -1.72834,-26.2749 z M 57.046122,124.61979 c 0,-5.40918 52.314058,-56.755851 70.670638,-69.363807 18.21953,-12.513861 58.80096,-34.558566 58.80096,-31.941979 0,0.627744 -4.79729,9.431048 -10.66063,19.562896 -8.93886,15.446426 -30.40137,62.66234 -36.121,79.46357 -1.42959,4.19944 -5.9397,4.7027 -42.145448,4.7027 -22.299483,0 -40.54452,-1.09053 -40.54452,-2.42338 z M 174.19787,119.65321 C 177.08661,107.4658 206.61952,49.224783 221.0073,27.341739 235.68723,5.0143043 235.33268,5.2041652 268.70734,1.797613 L 286.31872,0 l 0,63.52157 0,63.5216 -56.93623,0 -56.93624,0 1.75162,-7.38996 z m 141.79144,-55.760527 0,-63.15049604 6.89807,0 c 3.79394,0 15.48259,1.41242604 25.97485,3.13871734 l 19.07679,3.1386914 13.41206,20.3748003 c 14.13985,21.4803 43.6185,79.721754 46.69643,92.258814 l 1.81427,7.38996 -56.93624,0 -56.93623,0 0,-63.150487 z M 462.46384,122.34047 C 455.53063,103.26241 435.15033,58.483643 426.39318,43.087435 420.56163,32.834804 415.79032,23.8887 415.79032,23.207204 c 0,-3.237756 46.82017,23.549009 64.99966,37.187635 20.20694,15.159691 46.96878,41.645221 58.78608,58.179121 l 6.05321,8.46921 -40.72821,0 c -36.33949,0 -40.91235,-0.50674 -42.43723,-4.7027 z"
       id="language"
       inkscape:connector-curvature="0"
       inkscape:label="#path3157" />
  </g>
  <g
     inkscape:groupmode="layer"
     id="g3853"
     inkscape:label="enter"
     style="display:inline">
    <path
       style="fill:none;stroke:#000000;stroke-width:20;stroke-linejoin:round;stroke-miterlimit:4;stroke-opacity:1;stroke-dasharray:none"
       d="m 410.91722,10 0,302.48965 -163.26971,0 0,-99.80538 L 9.9999999,401.34214 247.64751,590 l 0,-99.80539 163.26971,0 179.08278,0 0,-177.70496 L 590,10 410.91722,10 z"
       id="enter"
       inkscape:connector-curvature="0"
       inkscape:label="#rect7744"
       inkscape:export-filename="/home/serg/Desktop/test.png"
       inkscape:export-xdpi="7.5"
       inkscape:export-ydpi="7.5" />
  </g>
</svg>
